<svg width="110" height="110" viewBox="0 0 110 110" fill="none" xmlns="http://www.w3.org/2000/svg">
<g clip-path="url(#clip0_2_76)">
<path d="M56.7239 17.5959L76.7354 24.8795L74.3075 31.55L54.296 24.2664L56.7239 17.5959ZM47.6255 21.8386L54.296 24.2664L51.8681 30.937L45.1976 28.5091L47.6255 21.8386ZM74.3075 31.55L80.978 33.9779L78.5502 40.6484L71.8797 38.2206L74.3075 31.55ZM38.5271 26.0812L45.1976 28.5091L36.7001 51.8559L30.0295 49.428L38.5271 26.0812ZM78.5502 40.6484L85.2207 43.0763L76.7231 66.4231L70.0526 63.9952L78.5502 40.6484ZM23.359 47.0001L30.0295 49.428L25.1738 62.769L18.5033 60.3412L23.359 47.0001ZM76.7231 66.4231L83.3937 68.851L78.5379 82.192L71.8674 79.7641L76.7231 66.4231Z" fill="black"/>
<path d="M20.9312 53.6707L80.9658 75.5215L78.5379 82.192L18.5033 60.3412L20.9312 53.6707ZM33.9657 69.7461L40.6362 72.174L38.2083 78.8445L31.5378 76.4166L33.9657 69.7461ZM53.9772 77.0297L60.6477 79.4576L58.2199 86.1281L51.5493 83.7002L53.9772 77.0297ZM38.2083 78.8445L51.5493 83.7002L49.1215 90.3707L35.7804 85.515L38.2083 78.8445Z" fill="black"/>
</g>
<defs>
<clipPath id="clip0_2_76">
<rect width="85.1834" height="85.1834" fill="white" transform="translate(29.1344) rotate(20)"/>
</clipPath>
</defs>
</svg>
